<?xml version="1.0" encoding="utf-8"?>
<!-- Generator: Adobe Illustrator 16.0.0, SVG Export Plug-In . SVG Version: 6.00 Build 0)  -->
<!DOCTYPE svg PUBLIC "-//W3C//DTD SVG 1.1//EN" "http://www.w3.org/Graphics/SVG/1.1/DTD/svg11.dtd">
<svg version="1.1" id="svg" xmlns="http://www.w3.org/2000/svg" xmlns:xlink="http://www.w3.org/1999/xlink" x="0px" y="0px"
	 width="382.063px" height="57.084px" viewBox="403.937 0 382.063 57.084" enable-background="new 403.937 0 382.063 57.084"
	 xml:space="preserve">
<metadata><?xpacket begin="﻿" id="W5M0MpCehiHzreSzNTczkc9d"?>
<x:xmpmeta xmlns:x="adobe:ns:meta/" x:xmptk="Adobe XMP Core 5.3-c011 66.145661, 2012/02/06-14:56:27        ">
   <rdf:RDF xmlns:rdf="http://www.w3.org/1999/02/22-rdf-syntax-ns#">
      <rdf:Description rdf:about=""
            xmlns:xmp="http://ns.adobe.com/xap/1.0/"
            xmlns:xmpGImg="http://ns.adobe.com/xap/1.0/g/img/">
         <xmp:CreatorTool>Adobe Illustrator CS6 (Windows)</xmp:CreatorTool>
         <xmp:CreateDate>2017-11-20T19:42:53+03:00</xmp:CreateDate>
         <xmp:Thumbnails>
            <rdf:Alt>
               <rdf:li rdf:parseType="Resource">
                  <xmpGImg:width>256</xmpGImg:width>
                  <xmpGImg:height>40</xmpGImg:height>
                  <xmpGImg:format>JPEG</xmpGImg:format>
                  <xmpGImg:image>/9j/4AAQSkZJRgABAgEASABIAAD/7QAsUGhvdG9zaG9wIDMuMAA4QklNA+0AAAAAABAASAAAAAEA&#xA;AQBIAAAAAQAB/+4ADkFkb2JlAGTAAAAAAf/bAIQABgQEBAUEBgUFBgkGBQYJCwgGBggLDAoKCwoK&#xA;DBAMDAwMDAwQDA4PEA8ODBMTFBQTExwbGxscHx8fHx8fHx8fHwEHBwcNDA0YEBAYGhURFRofHx8f&#xA;Hx8fHx8fHx8fHx8fHx8fHx8fHx8fHx8fHx8fHx8fHx8fHx8fHx8fHx8fHx8f/8AAEQgAKAEAAwER&#xA;AAIRAQMRAf/EAaIAAAAHAQEBAQEAAAAAAAAAAAQFAwIGAQAHCAkKCwEAAgIDAQEBAQEAAAAAAAAA&#xA;AQACAwQFBgcICQoLEAACAQMDAgQCBgcDBAIGAnMBAgMRBAAFIRIxQVEGE2EicYEUMpGhBxWxQiPB&#xA;UtHhMxZi8CRygvElQzRTkqKyY3PCNUQnk6OzNhdUZHTD0uIIJoMJChgZhJRFRqS0VtNVKBry4/PE&#xA;1OT0ZXWFlaW1xdXl9WZ2hpamtsbW5vY3R1dnd4eXp7fH1+f3OEhYaHiImKi4yNjo+Ck5SVlpeYmZ&#xA;qbnJ2en5KjpKWmp6ipqqusra6voRAAICAQIDBQUEBQYECAMDbQEAAhEDBCESMUEFURNhIgZxgZEy&#xA;obHwFMHR4SNCFVJicvEzJDRDghaSUyWiY7LCB3PSNeJEgxdUkwgJChgZJjZFGidkdFU38qOzwygp&#xA;0+PzhJSktMTU5PRldYWVpbXF1eX1RlZmdoaWprbG1ub2R1dnd4eXp7fH1+f3OEhYaHiImKi4yNjo&#xA;+DlJWWl5iZmpucnZ6fkqOkpaanqKmqq6ytrq+v/aAAwDAQACEQMRAD8A9U4q7FXYq7FXYq7FXYq7&#xA;FXYq7FXYq7FXYq7FXYq7FXYq7FXYq7FXYq7FXYq7FXYq7FXYq7FXYq7FXYq7FXYq7FXYq7FXYq7F&#xA;XYq7FXYq7FXYq7FXYq7FXYq7FXYq7FXYq7FXYq7FXYq7FXYq7FXYq7FXYq7FXYq7FXYq7FXYq7FX&#xA;Yq7FXYq7FXYq7FXYq7FXYq7FXYq7FXYq7FXYq7FXYq7FXYq7FXYq7FXYq7FXYq7FXYq7FXYq7FXY&#xA;q7FXYq7FXYq7FXYq7FXYq7FXYq7FXYq7FXYq7FXYq7FXYq7FXYq7FXYq7FXYq7FXYq7FXYq7FXYq&#xA;7FXYq7FXYq7FXYq7FXYq7FXYq7FXYq7FXYq7FXYq7FXYq7FXYq7FXYq7FXYq7FXYq7FXYq7FXYq7&#xA;FX//2Q==</xmpGImg:image>
               </rdf:li>
            </rdf:Alt>
         </xmp:Thumbnails>
         <xmp:MetadataDate>2017-11-20T19:42:55+03:00</xmp:MetadataDate>
         <xmp:ModifyDate>2017-11-20T19:42:55+03:00</xmp:ModifyDate>
      </rdf:Description>
      <rdf:Description rdf:about=""
            xmlns:xmpTPg="http://ns.adobe.com/xap/1.0/t/pg/"
            xmlns:stDim="http://ns.adobe.com/xap/1.0/sType/Dimensions#"
            xmlns:xmpG="http://ns.adobe.com/xap/1.0/g/">
         <xmpTPg:MaxPageSize rdf:parseType="Resource">
            <stDim:w>382.063477</stDim:w>
            <stDim:h>57.083984</stDim:h>
            <stDim:unit>Pixels</stDim:unit>
         </xmpTPg:MaxPageSize>
         <xmpTPg:NPages>1</xmpTPg:NPages>
         <xmpTPg:HasVisibleTransparency>False</xmpTPg:HasVisibleTransparency>
         <xmpTPg:HasVisibleOverprint>False</xmpTPg:HasVisibleOverprint>
         <xmpTPg:SwatchGroups>
            <rdf:Seq>
               <rdf:li rdf:parseType="Resource">
                  <xmpG:groupName>Группа образцов по умолчанию</xmpG:groupName>
                  <xmpG:groupType>0</xmpG:groupType>
               </rdf:li>
            </rdf:Seq>
         </xmpTPg:SwatchGroups>
      </rdf:Description>
      <rdf:Description rdf:about=""
            xmlns:dc="http://purl.org/dc/elements/1.1/">
         <dc:format>image/svg+xml</dc:format>
      </rdf:Description>
      <rdf:Description rdf:about=""
            xmlns:xmpMM="http://ns.adobe.com/xap/1.0/mm/"
            xmlns:stEvt="http://ns.adobe.com/xap/1.0/sType/ResourceEvent#">
         <xmpMM:DerivedFrom rdf:parseType="Resource"/>
         <xmpMM:DocumentID>xmp.did:43EF91DB11CEE7118AFEF6AC0784AC09</xmpMM:DocumentID>
         <xmpMM:InstanceID>xmp.iid:43EF91DB11CEE7118AFEF6AC0784AC09</xmpMM:InstanceID>
         <xmpMM:OriginalDocumentID>xmp.did:43EF91DB11CEE7118AFEF6AC0784AC09</xmpMM:OriginalDocumentID>
         <xmpMM:History>
            <rdf:Seq>
               <rdf:li rdf:parseType="Resource">
                  <stEvt:action>saved</stEvt:action>
                  <stEvt:instanceID>xmp.iid:43EF91DB11CEE7118AFEF6AC0784AC09</stEvt:instanceID>
                  <stEvt:when>2017-11-20T19:42:55+03:00</stEvt:when>
                  <stEvt:softwareAgent>Adobe Illustrator CS6 (Windows)</stEvt:softwareAgent>
                  <stEvt:changed>/</stEvt:changed>
               </rdf:li>
            </rdf:Seq>
         </xmpMM:History>
      </rdf:Description>
   </rdf:RDF>
</x:xmpmeta>
                                                                                                    
                                                                                                    
                                                                                                    
                                                                                                    
                                                                                                    
                                                                                                    
                                                                                                    
                                                                                                    
                                                                                                    
                                                                                                    
                                                                                                    
                                                                                                    
                                                                                                    
                                                                                                    
                                                                                                    
                                                                                                    
                                                                                                    
                                                                                                    
                                                                                                    
                                                                                                    
                           
<?xpacket end="w"?>
	</metadata>
<path id="Ботанический_сад_RU-2" fill="#FFFFFF" d="M432.765,14.166c-1.775,0.146-3.515,0.579-5.151,1.282
	c-0.953,7.953-8.425,16.5-8.114,25.757c0.12,3.5,2.547,4.7,5.601,4.6c1.947-0.2,3.826-0.831,5.5-1.847
	c-0.102-0.648-0.166-1.302-0.192-1.958c-0.37-10.917,7.33-20.021,7.184-24.376C437.519,15.5,436,14.161,433.1,14.16
	C432.99,14.16,432.879,14.162,432.765,14.166 M476.677,18.561c1.282-0.045,1.622,0.927,1.658,2.031c0.118,3.5-4.271,5.671-9.4,5.847
	C470.435,21.845,473.685,18.662,476.677,18.561 M477.808,12.261c-11.601,0.4-20.534,10.9-20.146,22.425
	c0.219,6.377,4.563,10.159,12.072,9.9c6.106-0.208,13.192-3.95,13.026-8.857c-0.016-1.539-0.663-3.004-1.79-4.052
	c0,0-4.838,5.076-10.395,5.266c-1.834,0.063-2.912-1.128-2.987-3.4c-0.007-0.472,0.018-0.944,0.073-1.413
	c10.037,0.33,20.573-4.388,20.267-13.4c-0.141-4.158-3.062-6.486-9.226-6.486C478.413,12.244,478.114,12.25,477.808,12.261
	 M420.254,2.008c-2.087,0.011-4.117,0.681-5.8,1.916c0.226,0.647,0.331,1.33,0.313,2.015C415.1,16,403.612,30.452,404,41.859
	c0.091,2.7,1.932,4.662,5.411,4.544c4.089-0.14,5.923-1.984,5.923-1.984c-0.221-0.775-0.33-1.578-0.325-2.384
	c-0.454-13.37,10.9-26.468,10.59-35.666C425.509,3.81,423.782,2,420.56,2c-0.101,0-0.2,0-0.307,0.005 M436.125,1.405
	c-3.3,0.003-5.972,2.681-5.969,5.981c0,0.019,0,0.037,0,0.055c0.084,2.515,1.978,4.23,5.212,4.12
	c3.308-0.012,5.979-2.702,5.969-6.01c-0.001-0.03-0.001-0.06-0.001-0.09c-0.08-2.376-1.801-4.062-4.907-4.062
	c-0.101,0-0.2,0-0.3,0.005 M458.485,1.004c-8.3,0.283-13.149,7.019-14.899,15c-1.391,0.041-2.778-0.139-4.112-0.534
	c-0.999,0.939-1.574,2.244-1.593,3.615c0.083,2.392,1.529,3.571,4.174,4.033c-1.893,9.152-5.16,24.553-11.521,29.8
	c0.954,2.676,3.607,4.359,6.435,4.082c8.424-0.287,12.508-20.506,15-33.546c5.674-0.316,9.222-2.034,9.094-5.775
	c-0.038-1.012-0.279-2.006-0.709-2.922c-2.159,0.521-4.354,0.883-6.565,1.082c0.671-3.645,2.176-6.152,4.5-6.231
	c1.646-0.039,3.211,0.703,4.224,2c0,0,3.3-1.895,3.175-5.511c-0.1-2.85-2.521-5.1-6.775-5.1
	C458.77,0.997,458.63,0.997,458.485,1.004 M514.713,17.4l-4.438-5.128V17.4h-1.333v-5.128L504.5,17.4h-1.879l4.785-5.342
	L503.1,7.734h1.826l4.012,4.19v-4.19h1.333v4.19l4.011-4.19h1.826l-4.305,4.324l4.785,5.342h-1.88H514.713z M517.802,17.4V7.734
	h1.333V15.1h0.026l4.466-7.364h1.411V17.4h-1.332v-7.377h-0.026l-4.465,7.377h-1.415H517.802z M528.61,16.744
	c-0.359,0.467-0.903,0.756-1.492,0.79c-0.251-0.002-0.494-0.087-0.692-0.241v-1.3c0.148,0.101,0.316,0.168,0.492,0.2
	c0.419-0.089,0.771-0.373,0.946-0.763c0.547-0.991,0.561-2.022,0.561-5.021V7.734h6.236V17.4h-1.332V8.885h-3.571v2.5
	C529.758,14.334,529.5,15.686,528.61,16.744z M541.031,7.533c3,0,4.4,2.209,4.4,5.034c0,2.825-1.4,5.034-4.4,5.034
	s-4.399-2.209-4.399-5.034C536.632,9.742,538.032,7.533,541.031,7.533z M541.031,16.449c2.439,0,3-1.874,3-3.882
	c0-2.062-0.56-3.883-3-3.883c-2.439,0-3,1.821-3,3.883C538.032,14.576,538.593,16.449,541.031,16.449z M547.414,17.4V7.734h1.333
	V15.1h0.026l4.465-7.364h1.413V17.4h-1.333v-7.377h-0.026l-4.465,7.377H547.414z M551.173,6.208c0.602,0.05,1.146-0.358,1.266-0.951
	h0.653c0.031,0.989-0.746,1.816-1.734,1.848c-0.066,0.002-0.132,0-0.198-0.004c-0.964,0.044-1.782-0.701-1.827-1.665
	c-0.002-0.061-0.002-0.122,0.002-0.183h0.64C550.068,5.831,550.587,6.244,551.173,6.208z M560.772,17.4V7.734h1.328v4.19l4.012-4.19
	h1.825l-4.3,4.324l4.784,5.342h-1.879l-4.442-5.128V17.4h-1.333H560.772z M569.701,17.4V7.734h3.439
	c1.652,0,3.104,0.642,3.104,2.517c-0.006,0.984-0.673,1.841-1.626,2.088v0.027c1.182,0.225,2.007,1.3,1.919,2.5
	c-0.016,1.076-0.719,2.02-1.745,2.343c-0.536,0.159-1.095,0.222-1.652,0.187h-3.44L569.701,17.4z M571.034,11.8h1.653
	c1.265,0,2.159-0.187,2.159-1.459s-0.895-1.46-2.159-1.46h-1.653V11.8z M571.034,16.245h2.226c0.909,0.121,1.744-0.518,1.865-1.428
	c0.121-0.909-0.519-1.745-1.428-1.865c-0.146-0.02-0.292-0.02-0.438,0h-2.226V16.245z M577.444,17.397l4.051-9.666h1.428
	l3.892,9.666h-1.453l-1.04-2.517h-4.465l-1.044,2.52h-1.373L577.444,17.397z M580.309,13.729h3.586l-1.747-4.673L580.309,13.729z
	 M588.119,7.729h3.226c1.786,0,3.332,0.589,3.332,2.7c0,2.022-1.626,2.7-3.412,2.7h-1.813V17.4h-1.333V7.734V7.729z M591.545,11.986
	c0.857,0.093,1.628-0.528,1.72-1.385c0.093-0.858-0.527-1.628-1.386-1.721c-0.111-0.012-0.223-0.012-0.334,0h-2.093v3.106H591.545z
	 M598.5,8.885h-3.229V7.734h7.783v1.151h-3.226V17.4H598.5V8.885z M602.564,17.4l4.052-9.666h1.427l3.892,9.666h-1.453l-1.04-2.517
	h-4.464l-1.04,2.517H602.564L602.564,17.4z M605.429,13.732h3.586l-1.746-4.673L605.429,13.732z M614.652,16.744
	c-0.359,0.467-0.904,0.756-1.493,0.79c-0.251-0.002-0.494-0.087-0.692-0.241v-1.3c0.148,0.101,0.316,0.168,0.493,0.2
	c0.418-0.089,0.77-0.373,0.945-0.763c0.547-0.991,0.561-2.022,0.561-5.021V7.734h6.234V17.4h-1.332V8.885h-3.571v2.5
	c-0.003,2.949-0.258,4.301-1.149,5.359H614.652z M517.5,24.784v3.608h-8.576v3.376c0.788-0.095,1.582-0.144,2.377-0.145
	c1.955-0.056,3.879,0.504,5.5,1.6c1.489,1.085,2.338,2.844,2.261,4.686c0.055,1.674-0.622,3.289-1.854,4.424
	c-1.884,1.688-4.955,2.269-7.939,2.269c-1.589,0.016-3.177-0.081-4.752-0.291V24.784H517.5z M508.9,41.17
	c0.565,0.086,1.138,0.125,1.71,0.117c1.049,0.024,2.069-0.339,2.868-1.019c0.628-0.585,0.975-1.411,0.954-2.268
	c0.029-0.862-0.359-1.686-1.043-2.212c-0.856-0.6-1.883-0.906-2.927-0.873c-0.524-0.002-1.048,0.036-1.565,0.116v6.139H508.9z
	 M539.875,34.388c0,6.432-3.882,10.333-9.59,10.333c-5.8,0-9.185-4.395-9.185-9.984c0-5.879,3.738-10.274,9.5-10.274
	c6,0.001,9.271,4.512,9.271,9.925H539.875z M525.765,34.65c0,3.842,1.8,6.548,4.752,6.548c2.984,0,4.694-2.852,4.694-6.664
	c0-3.522-1.682-6.55-4.724-6.55c-2.988,0.001-4.726,2.854-4.726,6.667L525.765,34.65z M546.543,28.509h-5.245v-3.725h15.003v3.726
	h-5.332V44.4h-4.433V28.509H546.543z M563.2,39.366l-1.391,5.034h-4.578l5.969-19.616h5.8l6.052,19.616h-4.751l-1.506-5.035
	L563.2,39.366L563.2,39.366z M568.155,36.048l-1.217-4.162c-0.349-1.165-0.7-2.62-0.985-3.783h-0.059
	c-0.289,1.164-0.579,2.648-0.9,3.784l-1.158,4.162h4.317L568.155,36.048z M582.094,24.784v7.538h7.271v-7.538h4.4V44.4h-4.4v-8.206
	h-7.271V44.4h-4.435V24.784H582.094z M601.68,24.784V30.6c0,3.143-0.058,6.257-0.231,8.877h0.116c1.014-2.3,2.317-4.889,3.478-6.985
	l4.199-7.713h4.521V44.4h-4.057v-5.791c-0.033-2.759,0.073-5.519,0.318-8.267h-0.087c-0.941,2.401-2.044,4.735-3.3,6.986
	l-3.972,7.072h-5.041V24.784H601.68L601.68,24.784z M621.848,24.784v5.676c0,2.24,1.188,3.317,3.274,3.317
	c1-0.016,1.982-0.265,2.868-0.727v-8.266h4.4V44.4h-4.4v-8.09H627.9c-1.354,0.688-2.855,1.038-4.375,1.019
	c-3.535,0-6.085-1.892-6.085-6.112v-6.433h4.4H621.848z M647.841,36.106h-7.186v4.657h8.025V44.4h-12.459V24.784h12.054v3.639h-7.62
	V32.5h7.186v3.608V36.106z M666.041,43.848c-1.597,0.621-3.303,0.908-5.014,0.845c-6.751,0-10.228-4.221-10.228-9.809
	c0-6.694,4.752-10.42,10.663-10.42c1.646-0.058,3.287,0.24,4.81,0.872l-0.9,3.523c-1.175-0.488-2.437-0.735-3.709-0.727
	c-3.5,0-6.229,2.124-6.229,6.49c0,3.929,2.318,6.4,6.259,6.4c1.254-0.001,2.498-0.218,3.679-0.64L666.041,43.848z M673.313,24.784
	v8.15h0.377l5.39-8.15h5.359l-6.808,8.7c2.52,0.639,3.65,2.387,4.461,4.744c0.627,2.101,1.382,4.161,2.261,6.17H679.6
	c-0.61-1.396-1.113-2.836-1.507-4.308c-0.666-2.211-1.565-3.9-3.941-3.9h-0.84v8.21h-4.375V24.784H673.313L673.313,24.784z
	 M690.526,24.784V30.6c0,3.143-0.058,6.257-0.231,8.877h0.115c1.015-2.3,2.318-4.889,3.478-6.985l4.2-7.713h4.52V44.4h-4.056v-5.791
	c-0.033-2.759,0.073-5.519,0.318-8.267h-0.087c-0.941,2.4-2.044,4.734-3.3,6.986l-3.97,7.073h-5.042V24.784h4.057H690.526z
	 M710.519,24.784V30.6c0,3.143-0.058,6.257-0.232,8.877h0.113c1.016-2.3,2.318-4.889,3.478-6.985l4.199-7.713h4.523V44.4h-4.058
	v-5.791c-0.033-2.759,0.073-5.519,0.319-8.267h-0.087c-0.941,2.4-2.044,4.734-3.3,6.986L711.5,44.4h-5.039V24.784h4.056H710.519z
	 M713.24,20.3c0.029,1.135,0.349,1.775,1.275,1.775c0.9,0,1.246-0.64,1.361-1.775h2.955c-0.174,2.5-1.8,3.579-4.375,3.579
	c-2.55,0-4-1.135-4.229-3.579H713.24L713.24,20.3z M746.649,43.846c-1.596,0.621-3.301,0.909-5.012,0.845
	c-6.751,0-10.229-4.221-10.229-9.809c0-6.694,4.752-10.42,10.663-10.42c1.647-0.058,3.288,0.239,4.811,0.872l-0.9,3.523
	c-1.175-0.488-2.437-0.735-3.709-0.727c-3.5,0-6.229,2.124-6.229,6.49c0,3.929,2.317,6.4,6.259,6.4
	c1.254-0.002,2.498-0.218,3.679-0.64L746.649,43.846z M754.097,39.364l-1.392,5.036h-4.577l5.972-19.616h5.8l6.048,19.616H761.2
	l-1.507-5.035H754.1L754.097,39.364z M759.052,36.046l-1.219-4.162c-0.347-1.165-0.694-2.62-0.983-3.783h-0.058
	c-0.29,1.164-0.58,2.648-0.9,3.784l-1.159,4.162L759.052,36.046L759.052,36.046z M784.058,24.782v16.126L786,41.025l-0.199,8.353
	h-3.361L782.2,44.4h-11.412l-0.231,4.976H767.2l-0.174-8.353l1.623-0.117c0.789-1.376,1.411-2.842,1.854-4.365
	c0.557-2.128,0.819-4.322,0.781-6.521v-5.236h12.778L784.058,24.782z M775.366,31.01c0.016,2.184-0.276,4.359-0.869,6.461
	c-0.332,1.152-0.789,2.265-1.361,3.318h6.489v-12.4h-4.259V31.01L775.366,31.01z"/>
</svg>
